<svg xmlns="http://www.w3.org/2000/svg" width="880" height="476" viewBox="0 0 880 476" font-family="-apple-system, BlinkMacSystemFont, 'Segoe UI', 'Noto Sans', Helvetica, Arial, sans-serif" role="img" aria-label="JSONata realistic-workload benchmark: jsonatapy is 8.7 times faster than jsonata-js on average, lower is better">
<rect width="880" height="476" fill="#1a1a19"/>
<text x="24" y="30" font-size="15" font-weight="600" fill="#ffffff">Realistic workloads — 100-product dataset, lower is better</text>
<text x="24" y="72" font-size="34" font-weight="700" fill="#ffffff">8.7× faster</text>
<text x="24" y="92" font-size="11.5" fill="#c3c2b7">than the jsonata-js reference — geometric mean across the 5 workloads below</text>
<rect x="24" y="106" width="9" height="9" rx="2" fill="#3987e5"/>
<text x="38" y="114" font-size="11.5" fill="#c3c2b7">jsonatapy (Python)</text>
<rect x="168.0" y="106" width="9" height="9" rx="2" fill="#d95926"/>
<text x="182.0" y="114" font-size="11.5" fill="#c3c2b7">jsonata-core (pure Rust)</text>
<rect x="348.0" y="106" width="9" height="9" rx="2" fill="#8f8e86"/>
<text x="362.0" y="114" font-size="11.5" fill="#c3c2b7">jsonata-js (reference)</text>
<text x="223.39999999999998" y="159.0" font-size="12" text-anchor="end" fill="#ffffff">Filter by category</text>
<path d="M235.39999999999998 132 H277.1 a4.0 4.0 0 0 1 4.0 4.0 V142.0 a4.0 4.0 0 0 1 -4.0 4.0 H235.39999999999998 Z" fill="#3987e5"/>
<text x="288.1" y="142.5" font-size="10.5" fill="#c3c2b7">7.3 ms</text>
<path d="M235.39999999999998 148 H244.0 a4.0 4.0 0 0 1 4.0 4.0 V158.0 a4.0 4.0 0 0 1 -4.0 4.0 H235.39999999999998 Z" fill="#d95926"/>
<text x="255.0" y="158.5" font-size="10.5" fill="#c3c2b7">2.0 ms</text>
<path d="M235.39999999999998 164 H556.4 a4.0 4.0 0 0 1 4.0 4.0 V174.0 a4.0 4.0 0 0 1 -4.0 4.0 H235.39999999999998 Z" fill="#8f8e86"/>
<text x="567.4" y="174.5" font-size="10.5" fill="#c3c2b7">51.7 ms</text>
<text x="223.39999999999998" y="225.0" font-size="12" text-anchor="end" fill="#ffffff">Calculate total value</text>
<path d="M235.39999999999998 198 H272.3 a4.0 4.0 0 0 1 4.0 4.0 V208.0 a4.0 4.0 0 0 1 -4.0 4.0 H235.39999999999998 Z" fill="#3987e5"/>
<text x="283.3" y="208.5" font-size="10.5" fill="#c3c2b7">6.5 ms</text>
<path d="M235.39999999999998 214 H267.0 a4.0 4.0 0 0 1 4.0 4.0 V224.0 a4.0 4.0 0 0 1 -4.0 4.0 H235.39999999999998 Z" fill="#d95926"/>
<text x="278.0" y="224.5" font-size="10.5" fill="#c3c2b7">5.7 ms</text>
<path d="M235.39999999999998 230 H465.1 a4.0 4.0 0 0 1 4.0 4.0 V240.0 a4.0 4.0 0 0 1 -4.0 4.0 H235.39999999999998 Z" fill="#8f8e86"/>
<text x="476.1" y="240.5" font-size="10.5" fill="#c3c2b7">37.2 ms</text>
<text x="223.39999999999998" y="291.0" font-size="12" text-anchor="end" fill="#ffffff">Complex transformation</text>
<path d="M235.39999999999998 264 H310.7 a4.0 4.0 0 0 1 4.0 4.0 V274.0 a4.0 4.0 0 0 1 -4.0 4.0 H235.39999999999998 Z" fill="#3987e5"/>
<text x="321.7" y="274.5" font-size="10.5" fill="#c3c2b7">12.6 ms</text>
<path d="M235.39999999999998 280 H283.7 a4.0 4.0 0 0 1 4.0 4.0 V290.0 a4.0 4.0 0 0 1 -4.0 4.0 H235.39999999999998 Z" fill="#d95926"/>
<text x="294.7" y="290.5" font-size="10.5" fill="#c3c2b7">8.3 ms</text>
<path d="M235.39999999999998 296 H772.7 a4.0 4.0 0 0 1 4.0 4.0 V306.0 a4.0 4.0 0 0 1 -4.0 4.0 H235.39999999999998 Z" fill="#8f8e86"/>
<text x="783.7" y="306.5" font-size="10.5" fill="#c3c2b7">86.1 ms</text>
<text x="223.39999999999998" y="357.0" font-size="12" text-anchor="end" fill="#ffffff">Group by category (aggregate)</text>
<path d="M235.39999999999998 330 H282.6 a4.0 4.0 0 0 1 4.0 4.0 V340.0 a4.0 4.0 0 0 1 -4.0 4.0 H235.39999999999998 Z" fill="#3987e5"/>
<text x="293.6" y="340.5" font-size="10.5" fill="#c3c2b7">8.1 ms</text>
<path d="M235.39999999999998 346 H281.3 a4.0 4.0 0 0 1 4.0 4.0 V356.0 a4.0 4.0 0 0 1 -4.0 4.0 H235.39999999999998 Z" fill="#d95926"/>
<text x="292.3" y="356.5" font-size="10.5" fill="#c3c2b7">7.9 ms</text>
<path d="M235.39999999999998 362 H794.0 a4.0 4.0 0 0 1 4.0 4.0 V372.0 a4.0 4.0 0 0 1 -4.0 4.0 H235.39999999999998 Z" fill="#8f8e86"/>
<text x="805.0" y="372.5" font-size="10.5" fill="#c3c2b7">89.5 ms</text>
<text x="223.39999999999998" y="423.0" font-size="12" text-anchor="end" fill="#ffffff">Top rated products</text>
<path d="M235.39999999999998 396 H245.5 a4.0 4.0 0 0 1 4.0 4.0 V406.0 a4.0 4.0 0 0 1 -4.0 4.0 H235.39999999999998 Z" fill="#3987e5"/>
<text x="256.5" y="406.5" font-size="10.5" fill="#c3c2b7">2.2 ms</text>
<path d="M235.39999999999998 412 H243.2 a4.0 4.0 0 0 1 4.0 4.0 V422.0 a4.0 4.0 0 0 1 -4.0 4.0 H235.39999999999998 Z" fill="#d95926"/>
<text x="254.2" y="422.5" font-size="10.5" fill="#c3c2b7">1.9 ms</text>
<path d="M235.39999999999998 428 H464.6 a4.0 4.0 0 0 1 4.0 4.0 V438.0 a4.0 4.0 0 0 1 -4.0 4.0 H235.39999999999998 Z" fill="#8f8e86"/>
<text x="475.6" y="438.5" font-size="10.5" fill="#c3c2b7">37.1 ms</text>
<text x="24" y="464" font-size="10" fill="#c3c2b7">jsonatapy v2.2.11 · min of 5 trials on dedicated Apple Silicon · 2026-10-01 · jsonata-python and jsonata-rs omitted for scale — full results in the docs</text>
</svg>
